<svg width="208" height="124" viewBox="0 0 208 124" fill="none" xmlns="http://www.w3.org/2000/svg">
<path d="M50.1787 65.5808C50.2508 65.5931 50.3223 65.609 50.3929 65.6284L50.1787 65.5808ZM55.0686 63.2208C55.0111 62.8218 54.8531 62.4439 54.6096 62.1225C54.464 61.9198 54.2845 61.7437 54.079 61.6022C54.0246 61.5682 53.9736 61.5308 53.9192 61.5002C53.6565 61.3441 53.3651 61.2423 53.0623 61.201C51.9929 61.0362 50.9019 61.3028 50.0291 61.9423C50.9252 62.1095 51.809 62.3367 52.6746 62.6224C52.9978 62.7308 53.3126 62.8626 53.6166 63.0168C53.5452 62.9964 53.1473 62.8876 52.5964 62.7482C51.3144 62.4082 49.2231 61.9117 48.6281 61.9661C47.7609 62.0443 46.5027 62.6462 46.2069 63.1087V63.0985C46.1695 62.3401 46.1355 61.5682 46.1559 60.7963C45.9998 60.2672 45.9512 59.7122 46.0131 59.1641C46.0691 58.8161 46.159 58.4743 46.2817 58.1439C46.3137 58.0813 46.3624 58.0288 46.4225 57.9922C46.4825 57.9556 46.5515 57.9363 46.6217 57.9364C46.7611 57.9273 46.8997 57.9091 47.0366 57.8821C47.2378 57.5536 47.4652 57.2421 47.7167 56.9503C48.0977 56.5888 48.5339 56.2903 49.0089 56.0662C48.8368 56.0227 48.6584 56.01 48.4818 56.0288C48.6824 55.9984 48.8865 55.9984 49.0871 56.0288C49.209 55.9624 49.3231 55.8825 49.4271 55.7907L49.3626 55.7567L49.4339 55.7805C49.5312 55.6881 49.6006 55.5703 49.6346 55.4405C49.6346 55.3861 49.723 55.3385 49.7978 55.3011C49.5456 55.2815 49.2923 55.3235 49.0599 55.4235C48.3838 55.5144 47.7004 55.5383 47.0196 55.4949C46.7058 55.4694 46.3911 55.533 46.1119 55.6787C45.8327 55.8243 45.6004 56.0458 45.4418 56.3179L45.1663 56.8415L44.9827 57.1816L42.9866 60.7453L42.7622 61.2112L42.3439 62.0783C42.3428 62.0862 42.3428 62.0942 42.3439 62.1021L41.9358 62.9386C41.9358 62.9386 41.1266 64.9143 41.5958 66.1895C41.7405 66.5675 41.9728 66.9059 42.2737 67.1767C42.5746 67.4474 42.9355 67.6429 43.3267 67.747C43.3267 67.747 44.3468 67.9748 44.9215 67.6789C44.9215 67.6789 46.0301 67.1926 46.5435 66.8798C46.7457 66.7566 46.9717 66.6778 47.2066 66.6486C47.8392 66.5602 49.0021 66.4037 49.1279 66.3969L48.6858 66.4785C47.5947 66.6715 46.5375 67.022 45.5472 67.5191C45.3732 67.6182 45.1868 67.6937 44.9929 67.7436C46.2484 68.5111 47.7225 68.8423 49.1857 68.6855C51.7497 68.4611 52.5216 67.1552 52.5216 67.1552C52.0365 66.3986 51.2835 65.8533 50.4133 65.6284C50.9608 65.7542 52.0932 66.1147 52.6474 66.9886C52.6719 67.0219 52.6935 67.0572 52.712 67.094C52.712 67.094 55.5685 66.7506 55.0686 63.2208Z" fill="#212121"/>
<path d="M67.5211 53.2542V55.2231H50.0324C49.9775 55.2111 49.9206 55.2111 49.8657 55.2231L49.7671 55.2741C49.6923 55.3115 49.6209 55.3591 49.6039 55.4135C49.5699 55.5433 49.5005 55.6611 49.4033 55.7535C49.2991 55.8453 49.185 55.9252 49.0632 55.9916C49.0516 56.0007 49.039 56.0087 49.0258 56.0154C49.0109 56.0224 48.9972 56.0316 48.985 56.0426C48.51 56.2667 48.0738 56.5651 47.6928 56.9267C47.4414 57.2185 47.2139 57.53 47.0127 57.8584C46.4745 58.7252 46.1754 59.7189 46.1456 60.7387V60.7761C46.1252 61.548 46.1456 62.3199 46.1966 63.0782V63.0952C46.1966 63.2483 46.217 63.4047 46.2238 63.5577H41.8916C41.9887 63.0517 42.1379 62.5571 42.337 62.0819C42.3359 62.074 42.3359 62.066 42.337 62.0581C42.4605 61.7617 42.6002 61.4722 42.7552 61.191C42.8539 61.0005 42.9627 60.8203 43.0783 60.6333C43.33 60.2218 43.5612 59.7934 43.84 59.3989C44.3439 58.7315 44.7272 57.9812 44.9724 57.1817C45.0626 56.835 45.1128 56.479 45.122 56.1208C45.122 55.8318 45.122 55.5427 45.122 55.2367H37.1002V53.2508C38.7767 53.2508 43.8536 53.2508 45.5335 53.2508C45.8735 53.2508 46.0606 52.9889 46.3224 52.8597C46.5094 52.7679 46.6624 52.6625 46.7849 52.9447C47.0807 52.7203 47.3119 52.5333 47.72 52.6625C48.0653 52.7163 48.4172 52.7105 48.7605 52.6455C49.0768 52.6251 49.3727 52.6149 49.495 53.0025C49.5631 53.2202 49.7501 53.244 49.9575 53.244L67.5211 53.2542Z" fill="#212121"/>
<path d="M66.0658 65.6282C66.1364 65.6088 66.2078 65.5928 66.28 65.5806C66.229 65.5908 66.1542 65.6044 66.0658 65.6282ZM63.7568 67.1041C63.7754 67.0672 63.797 67.0319 63.8215 66.9986C64.3724 66.1179 65.5217 65.7574 66.0522 65.6384C65.1826 65.8645 64.43 66.4096 63.9439 67.1653C63.9439 67.1653 64.7192 68.4711 67.2832 68.6955C68.7464 68.8515 70.2201 68.5204 71.476 67.7536C71.2821 67.7036 71.0957 67.6282 70.9217 67.5291C69.9315 67.032 68.8742 66.6815 67.7831 66.4885L67.3376 66.407C67.4668 66.407 68.6264 66.5701 69.2623 66.6586C69.4926 66.6892 69.7139 66.768 69.9118 66.8898C70.4287 67.2026 71.5372 67.6889 71.5372 67.6889C72.1051 67.9848 73.1321 67.757 73.1321 67.757C73.5226 67.6524 73.8828 67.4567 74.1831 67.186C74.4834 66.9153 74.7152 66.5772 74.8595 66.1995C75.3254 64.9243 74.5195 62.9486 74.5195 62.9486L74.1182 62.1121C74.1193 62.1042 74.1193 62.0962 74.1182 62.0883L73.6999 61.2211L73.4755 60.7553L71.4862 57.1814L71.2992 56.8413L71.0578 56.2836C70.8964 56.0154 70.663 55.798 70.384 55.656C70.105 55.5142 69.7917 55.4535 69.4799 55.4811C68.7991 55.5246 68.1157 55.5007 67.4396 55.4097C67.2071 55.31 66.954 55.268 66.7017 55.2873C66.7765 55.3247 66.8479 55.3723 66.8615 55.4267C66.898 55.5562 66.9685 55.6736 67.0655 55.7668L67.137 55.743L67.0724 55.777C67.1765 55.8688 67.2905 55.9486 67.4124 56.015C67.613 55.9846 67.8171 55.9846 68.0177 56.015C67.8412 55.9962 67.6627 56.0088 67.4906 56.0524C67.9646 56.2765 68.3997 56.575 68.7794 56.9365C69.0318 57.2275 69.2593 57.5391 69.4595 57.8683C69.5954 57.8951 69.7328 57.9133 69.8709 57.9227C69.9414 57.9221 70.0105 57.9413 70.0706 57.9779C70.1307 58.0145 70.1793 58.0673 70.211 58.1301C70.3368 58.4596 70.4269 58.8016 70.4797 59.1502C70.5448 59.6981 70.4973 60.2536 70.3403 60.7825C70.3607 61.5544 70.3403 62.3263 70.2892 63.0846V63.1016C69.9934 62.629 68.7318 62.0373 67.8681 61.9591C67.273 61.9047 65.1817 62.4114 63.8997 62.7412C63.3454 62.8806 62.9476 62.9894 62.8796 63.0098C63.1707 62.8601 63.4718 62.7306 63.7806 62.6222C64.6475 62.3368 65.5325 62.1095 66.4297 61.9421C65.5569 61.3026 64.4658 61.036 63.3964 61.2007C63.0933 61.241 62.8017 61.3429 62.5395 61.5C62.4851 61.5306 62.4307 61.568 62.3796 61.602C62.1759 61.7418 61.9976 61.9155 61.8526 62.1155C61.609 62.4368 61.451 62.8147 61.3935 63.2139C60.8902 66.7504 63.7568 67.1041 63.7568 67.1041Z" fill="#212121"/>
<path d="M64.1002 53.2542V55.2231H66.4228C66.4788 55.2109 66.5368 55.2109 66.5928 55.2231L66.6914 55.2741C66.7662 55.3115 66.8376 55.3591 66.8512 55.4135C66.8877 55.543 66.9582 55.6604 67.0553 55.7535C67.1594 55.8453 67.2734 55.9252 67.3953 55.9916C67.407 56.0007 67.4195 56.0087 67.4328 56.0154L67.4735 56.0426C67.9475 56.2668 68.3826 56.5652 68.7623 56.9267C69.0148 57.2177 69.2423 57.5294 69.4424 57.8584C69.9785 58.7262 70.2775 59.7193 70.3096 60.7387V60.7761C70.33 61.548 70.3096 62.3199 70.2586 63.0782V63.0952C70.2586 63.2483 70.2382 63.4047 70.2314 63.5577H74.567C74.471 63.0518 74.3229 62.5572 74.1249 62.0819C74.126 62.074 74.126 62.066 74.1249 62.0581C74.0014 61.7617 73.8618 61.4722 73.7066 61.191C73.608 61.0005 73.4992 60.8203 73.3666 60.6333C73.1116 60.2218 72.8803 59.7934 72.6049 59.3989C72.1045 58.7314 71.7258 57.9808 71.4861 57.1817C71.3948 56.8351 71.3435 56.4791 71.3331 56.1208C71.3331 55.8318 71.3331 55.5427 71.3331 55.2367H79.3549V53.2508C77.6819 53.2508 72.6049 53.2508 70.9251 53.2508C70.568 53.2508 70.398 52.9889 70.1361 52.8597C69.9457 52.7679 69.7961 52.6625 69.6737 52.9447C69.3778 52.7203 69.1466 52.5333 68.7385 52.6625C68.3933 52.7163 68.0413 52.7105 67.698 52.6455C67.3783 52.6251 67.0825 52.6149 66.9635 53.0025C66.8954 53.2202 66.7085 53.244 66.501 53.244L64.1002 53.2542Z" fill="#212121"/>
<path d="M70.9794 55.2738H79.3548V53.2505H70.9794V55.2738Z" fill="#212121"/>
<path d="M79.368 53.2046H37.1096V55.2412H79.368V53.2046Z" fill="#212121"/>
<path d="M61.3119 73.9086C61.1173 74.516 60.7348 75.0458 60.2196 75.4217C59.7044 75.7975 59.0831 76 58.4453 75.9999H58.3772C57.7542 75.9996 57.1467 75.8061 56.6382 75.4462C56.1297 75.0863 55.7453 74.5776 55.5378 73.9902L52.2258 65.5739C52.0291 65.0177 51.969 64.4223 52.0504 63.8379C52.1319 63.2536 52.3525 62.6973 52.6938 62.216C53.0351 61.7348 53.487 61.3425 54.0115 61.0723C54.5361 60.8022 55.1179 60.662 55.7079 60.6636H60.8086C61.3891 60.6637 61.9613 60.8009 62.4787 61.064C62.996 61.3271 63.444 61.7087 63.7861 62.1777C64.1281 62.6466 64.3546 63.1898 64.447 63.7628C64.5394 64.3358 64.4952 64.9226 64.3179 65.4753L61.3119 73.9086Z" fill="#212121"/>
<path d="M58.2616 63.4316C61.0261 63.4316 63.2672 60.9165 63.2672 57.8139C63.2672 54.7114 61.0261 52.1963 58.2616 52.1963C55.4971 52.1963 53.2561 54.7114 53.2561 57.8139C53.2561 60.9165 55.4971 63.4316 58.2616 63.4316Z" fill="#212121"/>
<path d="M32.6629 51.0112H32.1732C31.869 51.0112 31.6223 51.2579 31.6223 51.5621V56.9621C31.6223 57.2664 31.869 57.513 32.1732 57.513H32.6629C32.9671 57.513 33.2138 57.2664 33.2138 56.9621V51.5621C33.2138 51.2579 32.9671 51.0112 32.6629 51.0112Z" fill="#626262"/>
<path d="M34.3109 49.3105H33.8213C33.517 49.3105 33.2704 49.5572 33.2704 49.8614V58.662C33.2704 58.9662 33.517 59.2128 33.8213 59.2128H34.3109C34.6152 59.2128 34.8618 58.9662 34.8618 58.662V49.8614C34.8618 49.5572 34.6152 49.3105 34.3109 49.3105Z" fill="#626262"/>
<path d="M37.0333 48.7345V59.7896C37.0333 59.9844 36.9559 60.1712 36.8182 60.3089C36.6804 60.4467 36.4936 60.5241 36.2988 60.5241H35.6493C35.4551 60.5232 35.2692 60.4454 35.1321 60.3077C34.9951 60.1701 34.9182 59.9837 34.9182 59.7896V58.9496C34.9645 58.8615 34.989 58.7635 34.9896 58.664V49.8601C34.989 49.7605 34.9645 49.6626 34.9182 49.5744V48.7345C34.9182 48.5403 34.9951 48.354 35.1321 48.2163C35.2692 48.0787 35.4551 48.0009 35.6493 48H36.3022C36.4964 48.0009 36.6824 48.0787 36.8194 48.2163C36.9564 48.354 37.0333 48.5403 37.0333 48.7345Z" fill="#626262"/>
<path d="M31.6788 53.2046V55.2412H31.6139C31.2705 55.2412 31 54.8326 31 54.3227V54.12C31 53.6131 31.2705 53.2046 31.6139 53.2046H31.6788Z" fill="#212121"/>
<path d="M79.4247 48.7345V59.7896C79.4247 59.9844 79.502 60.1712 79.6398 60.3089C79.7776 60.4467 79.9644 60.5241 80.1592 60.5241H80.8087C80.9054 60.5245 81.0013 60.5059 81.0908 60.4692C81.1803 60.4324 81.2617 60.3784 81.3303 60.3102C81.3988 60.2419 81.4532 60.1608 81.4903 60.0715C81.5274 59.9821 81.5466 59.8863 81.5466 59.7896V58.9496C81.5002 58.8615 81.4758 58.7635 81.4751 58.664V49.8601C81.4758 49.7605 81.5002 49.6626 81.5466 49.5744V48.7345C81.5466 48.6378 81.5274 48.542 81.4903 48.4526C81.4532 48.3633 81.3988 48.2822 81.3303 48.2139C81.2617 48.1457 81.1803 48.0917 81.0908 48.0549C81.0013 48.0182 80.9054 47.9996 80.8087 48H80.1592C80.0627 48 79.9672 48.019 79.8781 48.0559C79.789 48.0928 79.708 48.1469 79.6398 48.2151C79.5716 48.2833 79.5175 48.3643 79.4806 48.4534C79.4437 48.5425 79.4247 48.6381 79.4247 48.7345Z" fill="#626262"/>
<path d="M82.6436 49.3115H82.1539C81.8497 49.3115 81.603 49.5582 81.603 49.8624V58.6629C81.603 58.9672 81.8497 59.2138 82.1539 59.2138H82.6436C82.9478 59.2138 83.1945 58.9672 83.1945 58.6629V49.8624C83.1945 49.5582 82.9478 49.3115 82.6436 49.3115Z" fill="#626262"/>
<path d="M84.2916 51.0112H83.802C83.4977 51.0112 83.2511 51.2579 83.2511 51.5621V56.9621C83.2511 57.2663 83.4977 57.513 83.802 57.513H84.2916C84.5959 57.513 84.8425 57.2663 84.8425 56.9621V51.5621C84.8425 51.2579 84.5959 51.0112 84.2916 51.0112Z" fill="#626262"/>
<path d="M84.8555 55.2411V53.2046H84.9204C85.2639 53.2046 85.5343 53.6131 85.5343 54.123V54.3258C85.5343 54.8326 85.2639 55.2411 84.9204 55.2411H84.8555Z" fill="#212121"/>
<path d="M100.194 66.0832H90.2009V54.4165H93.4682V63.1404H100.194V66.0832ZM104.331 56.5061H101.064V54.4165H104.331V56.5061ZM104.331 66.0832H101.064V57.3071H104.331V66.0832ZM109.389 66.0832H106.122V59.9887H104.94V57.3071H106.192C106.539 55.6528 108.155 54.4165 111.023 54.4165H111.718V56.7499H110.502C109.597 56.7499 109.163 56.8369 109.181 57.3071H112.413V55.7921H115.68V57.3071H118.201V59.9887H115.68V62.2698C115.68 62.9663 115.889 63.1404 116.636 63.1404H118.201V66.0832H115.907C113.717 66.0832 112.413 65.021 112.413 62.7399V59.9887H109.389V66.0832Z" fill="#626262"/>
<path d="M127.226 66.5137H119.368V54.4165H126.823C129.361 54.4165 130.621 55.4457 130.621 57.3415C130.621 58.8943 129.833 59.9957 127.699 60.0859V60.2665C130.044 60.3568 131.163 61.4762 131.163 63.1554C131.163 65.1957 130.026 66.5137 127.226 66.5137ZM122.641 57.4679V59.0026H126.473C127.138 59.0026 127.331 58.804 127.331 58.2443C127.331 57.6846 127.069 57.4679 126.386 57.4679H122.641ZM122.641 61.7832V63.4623H126.806C127.593 63.4623 127.838 63.2999 127.838 62.6137C127.838 61.9457 127.611 61.7832 126.806 61.7832H122.641ZM135.484 66.6943C133.017 66.6943 131.861 65.2138 131.861 63.2457V57.4137H135.152V61.9998C135.152 63.2638 135.624 63.6609 137.129 63.6609C138.652 63.6609 139.02 63.2818 139.02 62.1082V57.4137H142.31V66.5137H139.229V63.7513H139.055C138.862 65.2679 137.882 66.6943 135.484 66.6943ZM147.303 66.6943C144.608 66.6943 143.121 64.9068 143.121 61.9637C143.121 59.0026 144.573 57.2332 147.163 57.2332C149.246 57.2332 150.226 58.2443 150.489 59.7609H150.663V54.4165H153.953V66.5137H150.874V64.0582H150.698C150.418 65.8637 149.368 66.6943 147.303 66.6943ZM146.446 61.9637C146.446 63.1734 146.971 63.5887 148.494 63.5887C149.963 63.5887 150.663 63.2999 150.663 61.9818V61.8554C150.663 60.5734 149.963 60.3207 148.494 60.3207C146.971 60.3207 146.446 60.754 146.446 61.9637ZM159.011 66.6943C156.315 66.6943 154.828 64.9068 154.828 61.9637C154.828 59.0026 156.28 57.2332 158.871 57.2332C160.953 57.2332 161.933 58.2443 162.196 59.7609H162.371V54.4165H165.661V66.5137H162.581V64.0582H162.406C162.126 65.8637 161.076 66.6943 159.011 66.6943ZM158.153 61.9637C158.153 63.1734 158.678 63.5887 160.201 63.5887C161.671 63.5887 162.371 63.2999 162.371 61.9818V61.8554C162.371 60.5734 161.671 60.3207 160.201 60.3207C158.678 60.3207 158.153 60.754 158.153 61.9637ZM168.653 69.5832H167.06V66.5137H169.615C169.878 66.5137 170.088 66.4776 170.228 66.4054L166.01 57.4137H169.756L171.278 60.9887L171.908 63.0832H172.136L172.713 60.9526L174.026 57.4137H177.701L173.518 66.8748C172.574 69.0234 171.226 69.5832 168.653 69.5832Z" fill="#212121"/>
</svg>
