<svg width="208" height="124" viewBox="0 0 208 124" fill="none" xmlns="http://www.w3.org/2000/svg">
<path d="M82.8097 42H60.1903C55.3908 42 51.5 45.8908 51.5 50.6903V73.3097C51.5 78.1092 55.3908 82 60.1903 82H82.8097C87.6092 82 91.5 78.1092 91.5 73.3097V50.6903C91.5 45.8908 87.6092 42 82.8097 42Z" fill="#7A7A7A"/>
<path d="M56.8749 71.5509L56.3619 67.9869L56.4714 67.9713C58.2636 67.7148 59.8493 67.2941 61.2583 66.7014C58.7437 64.5715 57.7882 61.8472 58.5654 58.987C59.0127 57.3403 60.1558 55.9813 61.7025 55.2572C63.2679 54.5253 65.0585 54.5159 66.6145 55.2291C69.7391 56.6631 71.0589 60.4601 69.6202 63.8709C69.2683 64.7044 68.7648 65.5035 68.1283 66.2463C69.3278 66.6013 70.5788 66.8203 71.7611 66.8641C76.5981 67.0439 81.1817 64.3306 83.443 59.9628L86.6411 61.6174C83.7433 67.2175 77.8507 70.6924 71.6297 70.4625C69.3888 70.3811 66.9914 69.8057 64.8911 68.8924C62.6595 70.2263 60.0604 71.0927 56.9859 71.5337L56.8764 71.5493L56.8749 71.5509ZM64.1937 58.302C63.8653 58.302 63.5353 58.374 63.2272 58.5194C62.6345 58.7962 62.2123 59.2982 62.0403 59.9315C61.7681 60.934 61.6571 62.4618 63.8387 64.1586C64.0764 64.3431 64.3329 64.523 64.605 64.695C65.3916 64.0132 65.9718 63.2563 66.3017 62.4728C66.8835 61.0935 66.5942 59.1825 65.1116 58.5022C64.8208 58.3693 64.508 58.302 64.1937 58.302Z" fill="#212121"/>
<path d="M73.9756 58.9402C75.4568 58.9402 76.6576 57.7394 76.6576 56.2582C76.6576 54.7769 75.4568 53.5762 73.9756 53.5762C72.4943 53.5762 71.2936 54.7769 71.2936 56.2582C71.2936 57.7394 72.4943 58.9402 73.9756 58.9402Z" fill="#212121"/>
<path d="M80.5217 58.9402C82.0029 58.9402 83.2037 57.7394 83.2037 56.2582C83.2037 54.7769 82.0029 53.5762 80.5217 53.5762C79.0405 53.5762 77.8397 54.7769 77.8397 56.2582C77.8397 57.7394 79.0405 58.9402 80.5217 58.9402Z" fill="#212121"/>
<path d="M109.681 55V57.08H105.221V69H103.141V57.08H98.6906V55H109.681ZM114.768 69L111.188 55H113.328L115.948 65.27L118.558 55H120.448L123.068 65.27L125.688 55H127.828L124.268 69H121.878L119.508 59.73L117.138 69H114.768ZM129.638 69V55H131.718V66.92H137.748V69H129.638ZM139.95 69L142.66 55H144.34L147.93 64.43L151.5 55H153.18L155.9 69H153.78L151.97 59.63L148.62 68.47H147.22L143.88 59.63L142.07 69H139.95Z" fill="#212121"/>
</svg>
