<svg width="208" height="124" viewBox="0 0 208 124" fill="none" xmlns="http://www.w3.org/2000/svg">
<path d="M53.9468 66.708V72H51.5948C47.2641 72 45.0988 69.844 45.0988 65.532V61.388H43.1388V56.208H45.0988V52.4H51.3148V56.208H53.8908V61.388H51.3148V65.644C51.3148 66.0173 51.3988 66.288 51.5668 66.456C51.7534 66.624 52.0521 66.708 52.4628 66.708H53.9468ZM67.3741 56.096C69.1847 56.096 70.5941 56.7027 71.6021 57.916C72.6287 59.1293 73.1421 60.772 73.1421 62.844V72H66.9541V63.628C66.9541 62.8813 66.7487 62.2933 66.3381 61.864C65.9461 61.416 65.4141 61.192 64.7421 61.192C64.0514 61.192 63.5101 61.416 63.1181 61.864C62.7261 62.2933 62.5301 62.8813 62.5301 63.628V72H56.3141V51.28H62.5301V58.616C63.0154 57.8693 63.6594 57.2627 64.4621 56.796C65.2834 56.3293 66.2541 56.096 67.3741 56.096ZM91.1255 63.964C91.1255 64.3933 91.0975 64.804 91.0415 65.196H81.0455C81.1388 66.5587 81.7082 67.24 82.7535 67.24C83.4255 67.24 83.9108 66.932 84.2095 66.316H90.7895C90.5655 67.436 90.0895 68.444 89.3615 69.34C88.6522 70.2173 87.7468 70.9173 86.6455 71.44C85.5628 71.944 84.3682 72.196 83.0615 72.196C81.4935 72.196 80.0935 71.8693 78.8615 71.216C77.6482 70.5627 76.6962 69.6293 76.0055 68.416C75.3335 67.184 74.9975 65.7467 74.9975 64.104C74.9975 62.4613 75.3335 61.0333 76.0055 59.82C76.6962 58.588 77.6482 57.6453 78.8615 56.992C80.0935 56.3387 81.4935 56.012 83.0615 56.012C84.6295 56.012 86.0202 56.3387 87.2335 56.992C88.4655 57.6267 89.4175 58.5413 90.0895 59.736C90.7802 60.9307 91.1255 62.34 91.1255 63.964ZM84.8255 62.48C84.8255 61.9573 84.6575 61.5653 84.3215 61.304C83.9855 61.024 83.5655 60.884 83.0615 60.884C81.9602 60.884 81.3162 61.416 81.1295 62.48H84.8255ZM117.059 56.208L113.307 72H106.307L104.403 63.096L102.387 72H95.3874L91.6634 56.208H97.8234L99.1394 65.812L101.183 56.208H107.819L109.975 65.924L111.319 56.208H117.059ZM117.544 64.104C117.544 62.4427 117.824 61.0053 118.384 59.792C118.963 58.56 119.747 57.6267 120.736 56.992C121.726 56.3387 122.836 56.012 124.068 56.012C125.095 56.012 125.982 56.2267 126.728 56.656C127.475 57.0667 128.044 57.636 128.436 58.364V56.208H134.624V72H128.436V69.844C128.044 70.572 127.475 71.1507 126.728 71.58C125.982 71.9907 125.095 72.196 124.068 72.196C122.836 72.196 121.726 71.8787 120.736 71.244C119.747 70.5907 118.963 69.6573 118.384 68.444C117.824 67.212 117.544 65.7653 117.544 64.104ZM128.436 64.104C128.436 63.264 128.222 62.6107 127.792 62.144C127.363 61.6773 126.812 61.444 126.14 61.444C125.468 61.444 124.918 61.6773 124.488 62.144C124.059 62.6107 123.844 63.264 123.844 64.104C123.844 64.944 124.059 65.5973 124.488 66.064C124.918 66.5307 125.468 66.764 126.14 66.764C126.812 66.764 127.363 66.5307 127.792 66.064C128.222 65.5973 128.436 64.944 128.436 64.104ZM143.632 51.28V72H137.416V51.28H143.632ZM156.267 66.708V72H153.915C149.584 72 147.419 69.844 147.419 65.532V61.388H145.459V56.208H147.419V52.4H153.635V56.208H156.211V61.388H153.635V65.644C153.635 66.0173 153.719 66.288 153.887 66.456C154.074 66.624 154.372 66.708 154.783 66.708H156.267Z" fill="#626262"/>
<path d="M164.178 66.064V72H158.018V66.064H164.178Z" fill="#212121"/>
</svg>
