<svg width="208" height="124" viewBox="0 0 208 124" fill="none" xmlns="http://www.w3.org/2000/svg">
<rect x="23.41" y="42.3535" width="40" height="40" rx="20" fill="#BCBCBC"/>
<mask id="mask0_1037_2242" style="mask-type:luminance" maskUnits="userSpaceOnUse" x="30" y="47" width="26" height="30">
<path d="M30.8759 47.9092H55.9425V76.8008H30.8759V47.9092Z" fill="white"/>
</mask>
<g mask="url(#mask0_1037_2242)">
<path d="M43.3995 76.8008V75.1967L30.8759 67.2078V68.8113L43.3995 76.8008ZM43.3995 65.5328V67.1467L48.3578 63.9793L47.1009 63.1772L43.3995 65.5328ZM43.4196 47.9092V49.5133L55.9425 57.5029V55.8988L43.4196 47.9092ZM43.4196 59.1779V57.564L38.4509 60.7307L39.7182 61.5328L43.4196 59.1779Z" fill="#212121"/>
</g>
<mask id="mask1_1037_2242" style="mask-type:luminance" maskUnits="userSpaceOnUse" x="30" y="51" width="26" height="23">
<path d="M30.8759 51.0723H55.9425V73.5868H30.8759V51.0723Z" fill="white"/>
</mask>
<g mask="url(#mask1_1037_2242)">
<path d="M43.3995 73.5806V71.9667L30.8759 63.9771V65.591L43.3995 73.5806ZM43.3995 70.3625L50.8828 65.5813L49.6252 64.7792L43.3995 68.7583V70.3625ZM43.4196 51.125V52.7396L55.9425 60.7285V59.1146L43.4196 51.125ZM43.4196 54.3431L35.9259 59.125L37.1939 59.9264L43.4196 55.9472V54.3431Z" fill="#212121"/>
<path d="M43.3995 70.3625V68.7486L30.8759 60.759V62.3729L43.3995 70.3625ZM43.3995 73.5806L53.4182 67.1951L52.1502 66.3833L43.3995 71.9764V73.5806ZM43.4196 54.3431V55.9576L55.9425 63.9465V62.3326L43.4196 54.3431ZM43.4196 51.125L33.4009 57.5104L34.6585 58.3229L43.4196 52.7292V51.125Z" fill="#212121"/>
</g>
<mask id="mask2_1037_2242" style="mask-type:luminance" maskUnits="userSpaceOnUse" x="30" y="47" width="26" height="30">
<path d="M30.8759 47.9092H55.9425V76.8008H30.8759V47.9092Z" fill="white"/>
</mask>
<g mask="url(#mask2_1037_2242)">
<path d="M43.3995 67.1467V65.5328L30.8759 57.5432V59.1571L43.3995 67.1467ZM43.3995 76.8008L55.9425 68.8015L54.6752 67.9995L43.3995 75.1967V76.8008ZM43.4196 57.564V59.1779L55.9425 67.1668V65.5529L43.4196 57.564ZM43.4196 47.9092L30.8759 55.9092L32.1335 56.7106L43.4196 49.5133V47.9092Z" fill="#212121"/>
</g>
<path d="M76.8754 69.0531C72.6641 69.0531 70.2092 66.3387 70.2092 62.1674C70.2092 57.9961 73.0832 55.2818 77.9531 55.2818C82.4837 55.2818 85.1781 57.2776 85.1781 60.5907V60.7304H80.9868V60.5907C80.9868 59.3533 80.2284 58.8743 77.8533 58.8743C74.9793 58.8743 74.2009 59.513 74.2009 62.1674C74.2009 64.8219 74.9394 65.4606 77.6537 65.4606C80.428 65.4606 81.2263 65.3209 81.4059 64.303H77.2945V61.5487H85.198V68.8535H81.7053V65.9995H81.5057C81.1465 67.5562 80.0088 69.0531 76.8754 69.0531ZM91.8816 69.0531C88.3889 69.0531 86.0138 67.0772 86.0138 63.824C86.0138 60.5508 88.3889 58.5949 91.8816 58.5949C95.3744 58.5949 97.7494 60.5508 97.7494 63.824C97.7494 67.0772 95.3744 69.0531 91.8816 69.0531ZM91.8816 65.74C93.5781 65.74 94.0371 65.281 94.0371 63.824C94.0371 62.367 93.5781 61.888 91.8816 61.888C90.1852 61.888 89.7261 62.367 89.7261 63.824C89.7261 65.281 90.1852 65.74 91.8816 65.74ZM102.403 68.8535H98.6508V55.4813H102.403V68.8535ZM108.172 69.0531C105.098 69.0531 103.402 67.0772 103.402 63.824C103.402 60.5508 105.058 58.5949 108.012 58.5949C110.387 58.5949 111.505 59.7125 111.804 61.3891H112.004V55.4813H115.756V68.8535H112.243V66.1392H112.044C111.725 68.135 110.527 69.0531 108.172 69.0531ZM107.194 63.824C107.194 65.1612 107.793 65.6202 109.529 65.6202C111.206 65.6202 112.004 65.3009 112.004 63.8439V63.7042C112.004 62.2872 111.206 62.0078 109.529 62.0078C107.793 62.0078 107.194 62.4868 107.194 63.824ZM122.561 69.0531C119.148 69.0531 116.753 67.5961 116.753 63.824C116.753 60.5508 119.128 58.5949 122.481 58.5949C125.954 58.5949 128.169 60.3313 128.169 63.5645C128.169 63.9038 128.149 64.1633 128.109 64.5225H120.226C120.286 65.74 120.825 66.0793 122.421 66.0793C123.938 66.0793 124.337 65.8198 124.337 65.2211V65.0015H128.089V65.241C128.089 67.4764 125.954 69.0531 122.561 69.0531ZM122.401 61.4689C121.024 61.4689 120.445 61.7683 120.286 62.6265H124.537C124.397 61.7683 123.798 61.4689 122.401 61.4689ZM132.925 68.8535H129.173V58.7945H132.686V61.8481H132.886C133.105 60.1716 134.203 58.5949 136.897 58.5949C139.612 58.5949 140.889 60.2315 140.889 62.4069V68.8535H137.137V63.7841C137.137 62.387 136.618 61.9479 134.981 61.9479C133.325 61.9479 132.925 62.367 132.925 63.6643V68.8535ZM151.99 69.0531C147.34 69.0531 144.586 66.3387 144.586 62.1674C144.586 57.9961 147.34 55.2818 151.99 55.2818C156.76 55.2818 159.475 57.9961 159.475 62.1674C159.475 66.3387 156.76 69.0531 151.99 69.0531ZM151.99 65.4606C154.705 65.4606 155.483 64.8219 155.483 62.1674C155.483 59.513 154.705 58.8743 151.99 58.8743C149.276 58.8743 148.577 59.513 148.577 62.1674C148.577 64.8219 149.276 65.4606 151.99 65.4606ZM164.227 72.2465H160.475V58.7945H163.988V61.5088H164.188C164.507 59.513 165.704 58.5949 168.059 58.5949C171.133 58.5949 172.83 60.5708 172.83 63.824C172.83 67.0972 171.173 69.0531 168.219 69.0531C165.844 69.0531 164.726 67.9354 164.427 66.2589H164.227V72.2465ZM164.227 63.9437C164.227 65.3608 165.026 65.6402 166.702 65.6402C168.439 65.6402 169.037 65.1612 169.037 63.824C169.037 62.4868 168.439 62.0277 166.702 62.0277C165.026 62.0277 164.227 62.3471 164.227 63.804V63.9437ZM179.235 69.0531C175.683 69.0531 173.786 67.676 173.786 65.3608V65.281H177.539V65.4805C177.539 66.0394 177.898 66.0992 179.255 66.0992C180.552 66.0992 180.752 65.9595 180.752 65.6202C180.752 65.3009 180.592 65.2211 179.654 65.1213L176.74 64.8019C174.665 64.5824 173.547 63.6044 173.547 61.908C173.547 60.1317 174.964 58.5949 178.736 58.5949C182.229 58.5949 184.085 59.8522 184.085 62.3271V62.4069H180.333V62.2872C180.333 61.7683 180.133 61.5288 178.616 61.5288C177.399 61.5288 177.239 61.6884 177.239 62.0676C177.239 62.3471 177.399 62.4868 178.576 62.6065L180.572 62.8261C183.506 63.1454 184.444 64.1234 184.444 65.8198C184.444 67.6959 182.568 69.0531 179.235 69.0531Z" fill="#212121"/>
</svg>
