<svg width="208" height="124" viewBox="0 0 208 124" fill="none" xmlns="http://www.w3.org/2000/svg">
<path d="M163.772 47.7215H164.721L164.437 47.9934L164.131 49.7578H164.611L164.958 47.7215H165.664L165.75 47.2876H163.859L163.772 47.7215Z" fill="#212121"/>
<path d="M168.134 47.2876L167.301 48.3405L166.85 47.2876H166.369L165.936 49.7578H166.416L166.682 48.2537L167.006 49.0289H167.376L167.966 48.2537L167.7 49.7578H168.18L168.614 47.2876H168.134Z" fill="#212121"/>
<path d="M82.8554 54.5479H85.8289L85.4587 56.6652C85.3256 57.3768 84.6604 57.8859 83.9372 57.8859H80.3331C79.9802 57.8859 79.6447 57.7355 79.4132 57.4578C79.1876 57.1859 79.0951 56.8272 79.1645 56.4685L80.2174 50.4404C80.3447 49.7173 81.0273 49.1677 81.7389 49.1677H86.3323L87.2116 47.2817H82.167C80.3967 47.2817 78.7132 48.728 78.4124 50.4925L77.3248 56.6479C77.1802 57.4809 77.3711 58.2793 77.8628 58.8578C78.343 59.4247 79.0488 59.7718 79.8529 59.7718H83.5496C85.3025 59.7718 86.9802 58.2793 87.2868 56.5032L87.9868 52.5115H82.6356L82.8554 54.5479Z" fill="#212121"/>
<path d="M97.891 47.2935H91.0067L88.8257 59.7893H90.6306L92.4819 49.1852H97.3761C97.729 49.1852 98.0645 49.3009 98.3017 49.5844C98.5216 49.8505 98.6141 50.1976 98.5505 50.5794L98.1976 52.6678C98.0645 53.4083 97.3992 53.9811 96.6761 53.9811H93.8356L92.9563 55.867H95.1778L96.7744 59.7893H98.9381L97.3009 55.653L97.6422 55.4736C98.7935 54.9935 99.7075 53.9348 100.026 52.7662C100.049 52.6852 100.066 52.5984 100.078 52.5116L100.39 50.2439C100.506 49.434 100.315 48.705 99.8521 48.167C99.372 47.6001 98.6893 47.2935 97.891 47.2935Z" fill="#212121"/>
<path d="M100.963 59.7835H102.768L104.949 47.2876H103.15L100.963 59.7835Z" fill="#212121"/>
<path d="M113.088 56.3934L109.189 47.2876H107.182L105.001 59.7835H106.8L108.408 50.6719L112.331 59.7835H114.35L114.419 59.3207L116.542 47.2876H114.714L113.088 56.3934Z" fill="#212121"/>
<path d="M128.124 47.2876H118.764L118.434 49.1735H123.872L121.94 50.6083L120.36 59.7835H122.165L123.988 49.1735H127.794L128.124 47.2876Z" fill="#212121"/>
<path d="M137.045 47.2876H133.348C131.578 47.2876 129.894 48.7686 129.593 50.5331L127.979 59.7835H129.784L131.404 50.4868C131.531 49.7636 132.214 49.1735 132.926 49.1735H136.53C136.877 49.1735 137.212 49.2893 137.455 49.5785C137.675 49.8388 137.768 50.2149 137.698 50.5967L137.12 53.9694H132.804L131.925 55.8554H136.784L136.102 59.7777H137.924L139.561 50.4C139.706 49.5612 139.515 48.7512 139.029 48.1727C138.549 47.6116 137.843 47.2876 137.045 47.2876Z" fill="#212121"/>
<path d="M141.621 50.5331L140.007 59.7835H141.812L142.726 54.5537H148.256L148.592 52.5174H144.664L142.726 54.4438L143.431 50.4521C143.559 49.7289 144.241 49.1735 144.953 49.1735H149.546L150.426 47.2876H145.381C143.605 47.2876 141.921 48.7628 141.621 50.5331Z" fill="#212121"/>
<path d="M157.229 51.8347L154.996 47.2876H152.745L154.961 51.9331H157.275L156.055 53.3678L154.926 59.7835H156.749L157.779 53.7669L163.222 47.2876H161.111L157.229 51.8347Z" fill="#212121"/>
<path d="M91.1281 64.3018L91.1396 64.2324H91.1107L91.1281 64.3018Z" fill="#212121"/>
<path d="M81.6115 75.3281C81.2818 75.3281 81.0157 75.438 80.7958 75.6752C80.5644 75.8893 80.4487 76.1554 80.4487 76.4794C80.4487 76.7918 80.5586 77.0521 80.7843 77.2777C81.0099 77.5033 81.276 77.6132 81.5884 77.6132C81.9124 77.6132 82.1785 77.5033 82.3925 77.2777C82.6124 77.0405 82.7223 76.7686 82.7223 76.462C82.7223 76.1496 82.6124 75.8835 82.3925 75.6637C82.1901 75.438 81.9355 75.3281 81.6115 75.3281Z" fill="#212121"/>
<path d="M84.3769 75.3281C84.0703 75.3281 83.8042 75.4496 83.5612 75.6926C83.3414 75.9124 83.2314 76.1728 83.2314 76.4851C83.2314 76.7975 83.3356 77.0579 83.5496 77.2835C83.7926 77.5149 84.0645 77.6306 84.3653 77.6306C84.6546 77.6306 84.9265 77.5149 85.1637 77.2951C85.3951 77.0463 85.5108 76.7744 85.5108 76.4794C85.5108 76.1785 85.3951 75.9066 85.1637 75.6752C84.9381 75.438 84.6835 75.3281 84.3769 75.3281Z" fill="#212121"/>
<path d="M114.783 62.5891C114.569 62.3693 114.315 62.2651 114.002 62.2651C113.707 62.2651 113.464 62.3693 113.256 62.5891C113.175 62.6701 113.117 62.7627 113.065 62.8552C112.944 63.0403 112.88 63.2544 112.88 63.4916C112.88 63.8098 112.984 64.0701 113.204 64.2899C113.424 64.5213 113.69 64.637 114.002 64.637C114.332 64.637 114.604 64.5213 114.835 64.2899C115.055 64.0701 115.165 63.804 115.165 63.4916C115.165 63.2544 115.107 63.0461 114.98 62.861C114.934 62.7627 114.87 62.6759 114.783 62.5891Z" fill="#212121"/>
<path d="M160.804 62.5836C160.578 62.358 160.307 62.248 159.988 62.248C159.67 62.248 159.404 62.358 159.184 62.5836C158.964 62.8092 158.854 63.0753 158.854 63.3935C158.854 63.7117 158.964 63.972 159.184 64.1918C159.404 64.4233 159.67 64.539 159.988 64.539C160.307 64.539 160.573 64.4233 160.804 64.1918C161.024 63.972 161.128 63.7059 161.128 63.3935C161.128 63.0753 161.024 62.8092 160.804 62.5836Z" fill="#212121"/>
<path d="M157.165 64.5043C157.501 64.5043 157.773 64.3886 157.998 64.1572C158.212 63.9373 158.322 63.6712 158.322 63.3588C158.322 63.0407 158.218 62.7745 157.998 62.5489C157.779 62.3233 157.507 62.2134 157.165 62.2134C156.853 62.2134 156.587 62.3233 156.367 62.5489C156.147 62.7745 156.037 63.0407 156.037 63.3588C156.037 63.6712 156.147 63.9373 156.367 64.1572C156.587 64.3886 156.847 64.5043 157.165 64.5043Z" fill="#212121"/>
<path d="M127.783 64.4636C128.118 64.4636 128.39 64.3479 128.616 64.1165C128.83 63.8967 128.94 63.6306 128.94 63.3182C128.94 63 128.83 62.7281 128.616 62.5082C128.396 62.2768 128.124 62.1611 127.783 62.1611C127.47 62.1611 127.21 62.2768 126.984 62.5082C126.764 62.7339 126.655 63 126.655 63.3182C126.655 63.6306 126.764 63.8967 126.984 64.1165C127.204 64.3537 127.464 64.4636 127.783 64.4636Z" fill="#212121"/>
<path d="M130.722 64.4984C131.04 64.4984 131.306 64.3827 131.537 64.1512C131.757 63.9256 131.861 63.6595 131.861 63.3413C131.861 63.0231 131.757 62.7628 131.537 62.5372C131.312 62.3116 131.046 62.2017 130.722 62.2017C130.398 62.2017 130.137 62.3116 129.917 62.5372C129.698 62.7628 129.588 63.0289 129.588 63.3471C129.588 63.6653 129.698 63.9256 129.917 64.157C130.137 64.3827 130.403 64.4984 130.722 64.4984Z" fill="#212121"/>
<path d="M136.755 64.4984C137.074 64.4984 137.34 64.3827 137.571 64.1512C137.791 63.9256 137.895 63.6595 137.895 63.3413C137.895 63.0231 137.791 62.7628 137.571 62.5372C137.345 62.3116 137.079 62.2017 136.755 62.2017C136.431 62.2017 136.171 62.3116 135.951 62.5372C135.731 62.7628 135.621 63.0289 135.621 63.3471C135.621 63.6653 135.731 63.9256 135.951 64.157C136.171 64.3827 136.431 64.4984 136.755 64.4984Z" fill="#212121"/>
<path d="M86.2802 66.3726C86.3264 66.147 86.5174 66.0313 86.7372 66.0313H89.9769L90.8562 64.4346H86.2802C85.4413 64.4346 84.7298 64.9668 84.5851 65.7652L84.1744 67.9693C84.0818 68.4784 84.2207 69.028 84.5446 69.4213C84.8802 69.8263 85.3661 70.104 85.8694 70.104H88.1314L87.8017 71.7817C87.7438 72.0825 87.4777 72.2792 87.1479 72.2792H78.3661C78.2273 72.2792 78.0248 72.2098 77.886 72.0478C77.7587 71.8974 77.7182 71.7123 77.7471 71.5387L78.9273 64.9321L77.0587 65.3197L75.8901 71.8627C75.7975 72.366 75.9421 72.9329 76.2661 73.3205C76.6132 73.7313 77.0934 74.0205 77.5909 74.0205H87.7669C88.6 74.0205 89.3174 73.4304 89.462 72.6205L90.214 68.4957H86.4537C86.3322 68.4957 86.1992 68.38 86.095 68.247C86.0083 68.1428 85.9678 67.9461 85.9967 67.8015L86.2802 66.3726Z" fill="#212121"/>
<path d="M113.216 65.7134C112.516 65.7134 111.862 65.7424 111.266 65.8638C110.381 65.9795 109.571 66.3035 108.859 66.83C107.743 67.663 107.176 68.8085 107.176 70.2143C107.176 70.8217 107.326 71.4407 107.633 72.0308L107.766 72.2738H95.843C95.6347 72.2738 95.4727 72.1581 95.3628 72.025C95.2413 71.8804 95.195 71.6779 95.224 71.4986L96.8206 62.3696L94.9521 62.7688L93.3611 71.8572C93.2744 72.3605 93.4132 72.9275 93.7372 73.3151C94.0843 73.7258 94.5644 74.0151 95.0562 74.0151H112.059C112.88 74.0151 113.609 73.3961 113.754 72.5804L114.957 65.8754C114.951 65.8812 114.205 65.7134 113.216 65.7134ZM111.983 72.3374L111.845 72.3258C111.752 72.32 111.44 72.2911 111.336 72.2911C110.63 72.2911 110.069 72.0886 109.612 71.6663C109.16 71.2556 108.935 70.7233 108.935 70.087C108.935 69.3118 109.189 68.7043 109.716 68.2242C109.855 68.0969 110.011 67.9812 110.19 67.8829C110.543 67.6804 110.936 67.5589 111.341 67.501C111.654 67.4548 112.093 67.4085 112.481 67.4085C112.556 67.4085 112.631 67.4085 112.707 67.4143L112.874 67.42L111.983 72.3374Z" fill="#212121"/>
<path d="M136.142 72.5686L137.195 66.6099H135.402L134.482 71.7992C134.43 72.0827 134.187 72.2736 133.869 72.2736H129.86L128.523 73.3959L128.72 72.2736L129.726 66.6099H127.933L127.019 71.7992C126.967 72.0827 126.724 72.2736 126.406 72.2736H118.81C118.602 72.2736 118.44 72.1579 118.33 72.0248C118.208 71.8802 118.162 71.6777 118.191 71.4984L119.788 62.3926L117.919 62.7975L116.328 71.8686C116.241 72.3603 116.369 72.8926 116.681 73.2628C117.057 73.7083 117.624 74.0149 118.249 74.0149H134.655C135.246 74.0207 135.986 73.4248 136.142 72.5686Z" fill="#212121"/>
<path d="M158.594 65.8926C157.894 65.8926 157.241 65.9562 156.645 66.0777C155.76 66.1934 154.95 66.5116 154.238 67.038C153.122 67.8711 152.555 69.005 152.555 70.4108C152.555 71.0182 152.705 71.6199 153.012 72.2099L153.145 72.4182H149.367H148.933H140.926L141.956 66.4595H140.157L138.751 74.281C138.601 75.1719 137.878 75.6463 136.599 75.7736C136.431 75.7909 136.246 75.7967 136.061 75.7967C135.703 75.7967 135.321 75.762 134.875 75.6984L135.998 77.5843C136.188 77.6017 136.379 77.6132 136.559 77.6132C137.722 77.6132 138.682 77.2488 139.417 76.5199C139.804 76.138 140.082 75.6289 140.255 74.9637L140.429 74.2116L140.458 74.1653H140.464L140.799 72.5223L141.632 74.1653H148.933H149.367H157.449C158.27 74.1653 158.999 73.5463 159.144 72.7306L160.347 66.0256C160.336 66.0256 159.595 65.8926 158.594 65.8926ZM157.362 72.5628L157.223 72.5513C157.131 72.5455 156.818 72.5165 156.714 72.5165C156.008 72.5165 155.447 72.3141 154.99 71.8918C154.539 71.481 154.313 70.9488 154.313 70.3124C154.313 69.5372 154.568 68.9298 155.094 68.4496C155.349 68.2182 155.673 68.0215 156.043 67.8769C156.199 67.8132 156.367 67.7727 156.535 67.7496C156.836 67.7033 157.391 67.6281 157.86 67.6281C157.935 67.6281 158.01 67.6281 158.079 67.6339L158.247 67.6397L157.362 72.5628Z" fill="#212121"/>
<path d="M71.9156 61.6697H65.9338H63.9206H59.2404L58.1297 63.411H63.9437L61.1553 68.2069H55.0346L51.7776 62.5375L54.5487 57.678L54.9363 57.0127H61.2768L62.914 59.9168H64.9272L62.7867 56.1218L65.7429 50.9614C69.2602 53.3044 71.6495 57.1631 71.9156 61.6697Z" fill="#7A7A7A"/>
<path d="M64.2388 50.0821L61.2826 55.2771H54.9537L54.0049 53.6226L51.9801 50.0705C53.8256 49.1507 55.9082 48.6416 58.1065 48.6416C60.3107 48.6416 62.3875 49.168 64.2388 50.0821Z" fill="#7A7A7A"/>
<path d="M50.4355 50.979L52.628 54.7278L53.4206 56.1104L53.328 56.2955L50.2388 61.6699H44.3032C44.5693 57.1633 46.9412 53.3162 50.4355 50.979Z" fill="#7A7A7A"/>
<path d="M44.309 63.4111H50.1982L53.3685 68.9533L50.4238 73.9806C46.9528 71.6549 44.5982 67.7731 44.309 63.4111Z" fill="#7A7A7A"/>
<path d="M51.928 74.8541L54.8205 69.9541H61.3693L64.2503 74.8772C62.3991 75.7971 60.3164 76.3177 58.1123 76.3177C55.8908 76.312 53.7908 75.7855 51.928 74.8541Z" fill="#7A7A7A"/>
<path d="M65.7602 73.9979L62.8387 68.9938L66.0321 63.4111H71.9098C71.6206 67.7731 69.2429 71.6781 65.7602 73.9979Z" fill="#7A7A7A"/>
<path d="M58.1066 46.877C49.5156 46.877 42.5272 53.8654 42.5272 62.4563C42.5272 71.0472 49.5156 78.0356 58.1066 78.0356C66.6975 78.0356 73.6859 71.0472 73.6859 62.4563C73.6859 53.8654 66.6975 46.877 58.1066 46.877ZM71.9157 61.6695H65.9338H63.9206H59.2404L58.1297 63.4108H63.9437L61.1553 68.2067H55.0347L51.7776 62.5373L54.5487 57.6778L54.9363 57.0125H61.2768L62.914 59.9166H64.9272L62.7867 56.1216L65.7429 50.9613C69.2603 53.3042 71.6495 57.1629 71.9157 61.6695ZM64.2388 50.0819L61.2826 55.277H54.9537L54.0049 53.6224L51.9801 50.0703C53.8256 49.1505 55.9082 48.6414 58.1066 48.6414C60.3107 48.6414 62.3876 49.1679 64.2388 50.0819ZM50.4355 50.9786L52.628 54.7274L53.4206 56.11L53.328 56.2951L50.2388 61.6695H44.3033C44.5694 57.1629 46.9413 53.3158 50.4355 50.9786ZM44.309 63.4108H50.1983L53.3685 68.953L50.4239 73.9803C46.9528 71.6546 44.5983 67.7728 44.309 63.4108ZM51.928 74.8538L54.8206 69.9538H61.3694L64.2504 74.877C62.3991 75.7968 60.3165 76.3175 58.1123 76.3175C55.8909 76.3117 53.7909 75.7852 51.928 74.8538ZM65.7603 73.9976L62.8388 68.9935L66.0322 63.4108H71.9099C71.6206 67.7728 69.2429 71.6778 65.7603 73.9976Z" fill="#212121"/>
<g opacity="0.2">
<path d="M61.2826 55.2306L62.2024 50.9323C60.357 50.0125 58.2743 49.4976 56.076 49.4976C54.6586 49.4976 53.2933 49.7116 52.009 50.1108L51.9801 50.0587C53.8256 49.1389 55.9082 48.624 58.1065 48.624C60.3049 48.624 62.3875 49.1389 64.233 50.0587L61.2826 55.2306Z" fill="black"/>
<path d="M53.4206 56.1041L50.1405 53.4488C47.3115 55.3405 45.2173 58.181 44.3785 61.6694H44.2975C44.5636 57.1628 46.9355 53.3157 50.4297 50.9785L52.6281 54.7273L53.4206 56.1041Z" fill="black"/>
<path d="M64.2504 74.8479C62.3991 75.7677 60.3165 76.2884 58.1124 76.2884C55.8909 76.2884 53.7909 75.7619 51.9338 74.8305L54.8206 69.9189L53.9702 73.957C55.833 74.8884 57.933 75.4148 60.1487 75.4148C61.5661 75.4148 62.9371 75.2008 64.2272 74.8016L64.2504 74.8479Z" fill="black"/>
<path d="M71.8925 63.6133C71.5338 67.9348 69.1793 71.6951 65.7603 73.9744L62.9661 69.1728L66.0495 72.0885C68.9595 70.1447 71.0999 67.1306 71.8925 63.6133Z" fill="black"/>
<path d="M71.9157 61.6694H66.1653L70.2843 60.1942C70.0818 56.8099 68.2595 53.4661 66.0438 51.1636C69.3934 53.5181 71.6554 57.3132 71.9157 61.6694Z" fill="black"/>
<path d="M54.9421 57.0181L60.519 57.8685L62.9198 59.9164L61.2826 57.0181H54.9421Z" fill="black"/>
<path d="M58.1239 63.4106L62.1561 64.4809L61.1495 68.1949L63.938 63.4106H58.1239Z" fill="black"/>
<path d="M50.4412 73.9052L50.4123 73.9746C46.947 71.649 44.5925 67.773 44.3032 63.4168H50.1925L50.1983 63.3994L46.195 64.8283C46.4264 68.392 48.0115 71.5796 50.4412 73.9052Z" fill="black"/>
</g>
</svg>
