<?xml version="1.0" encoding="UTF-8"?>
<svg width="500" height="500" viewBox="0 0 500 500" fill="none" xmlns="http://www.w3.org/2000/svg">
  <!-- Background Elements -->
  <circle cx="250" cy="250" r="200" fill="#F0F9FF" opacity="0.5"/>
  <circle cx="250" cy="250" r="150" fill="#E0F2FE" opacity="0.3"/>
  
  <!-- Main Character -->
  <g transform="translate(150, 100)">
    <!-- Body -->
    <path d="M100 200 L150 350 L50 350 Z" fill="#EF4444"/>
    <!-- Head -->
    <circle cx="100" cy="170" r="30" fill="#FCD34D"/>
    <!-- Arms -->
    <line x1="70" y1="220" x2="20" y2="180" stroke="#FCD34D" stroke-width="10" stroke-linecap="round"/>
    <line x1="130" y1="220" x2="180" y2="180" stroke="#FCD34D" stroke-width="10" stroke-linecap="round"/>
  </g>

  <!-- UI Elements -->
  <g transform="translate(280, 150)">
    <!-- Window -->
    <rect x="0" y="0" width="120" height="80" rx="8" fill="white" stroke="#94A3B8" stroke-width="2"/>
    <rect x="0" y="0" width="120" height="20" rx="8" fill="#94A3B8"/>
    <circle cx="10" cy="10" r="3" fill="white"/>
    <circle cx="20" cy="10" r="3" fill="white"/>
    <circle cx="30" cy="10" r="3" fill="white"/>
  </g>

  <!-- Document -->
  <g transform="translate(100, 180)">
    <rect x="0" y="0" width="80" height="100" fill="white" stroke="#94A3B8" stroke-width="2"/>
    <line x1="10" y1="20" x2="70" y2="20" stroke="#94A3B8" stroke-width="2"/>
    <line x1="10" y1="40" x2="70" y2="40" stroke="#94A3B8" stroke-width="2"/>
    <line x1="10" y1="60" x2="70" y2="60" stroke="#94A3B8" stroke-width="2"/>
  </g>

  <!-- Plus/Minus Icons -->
  <g transform="translate(320, 220)">
    <circle cx="0" cy="0" r="15" fill="#0EA5E9"/>
    <line x1="-8" y1="0" x2="8" y2="0" stroke="white" stroke-width="2"/>
    <line x1="0" y1="-8" x2="0" y2="8" stroke="white" stroke-width="2"/>
  </g>
  <g transform="translate(280, 280)">
    <circle cx="0" cy="0" r="15" fill="#EF4444"/>
    <line x1="-8" y1="0" x2="8" y2="0" stroke="white" stroke-width="2"/>
  </g>

  <!-- Decorative Elements -->
  <circle cx="80" cy="80" r="5" fill="#0EA5E9"/>
  <circle cx="420" cy="420" r="5" fill="#0EA5E9"/>
  <circle cx="420" cy="80" r="5" fill="#EF4444"/>
  <circle cx="80" cy="420" r="5" fill="#EF4444"/>
</svg> 