<svg width="500" height="400" viewBox="0 0 500 400" fill="none" xmlns="http://www.w3.org/2000/svg">
  <!-- Search Bar -->
  <rect x="100" y="150" width="200" height="40" rx="20" fill="#F0F9FF" stroke="#0EA5E9" stroke-width="2"/>
  <circle cx="280" y="170" r="12" fill="#0EA5E9" fill-opacity="0.2"/>
  <path d="M276 170L284 170M280 166L280 174" stroke="#0EA5E9" stroke-width="2" stroke-linecap="round"/>
  
  <!-- Person 1 -->
  <circle cx="150" y="250" r="30" fill="#0EA5E9" fill-opacity="0.1"/>
  <path d="M140 240C140 240 150 250 160 240" stroke="#0EA5E9" stroke-width="2" stroke-linecap="round"/>
  <circle cx="145" y="235" r="2" fill="#0EA5E9"/>
  <circle cx="155" y="235" r="2" fill="#0EA5E9"/>
  <rect x="135" y="260" width="30" height="40" rx="15" fill="#0EA5E9" fill-opacity="0.1"/>
  
  <!-- Person 2 -->
  <circle cx="350" y="200" r="30" fill="#0EA5E9" fill-opacity="0.1"/>
  <path d="M340 190C340 190 350 200 360 190" stroke="#0EA5E9" stroke-width="2" stroke-linecap="round"/>
  <circle cx="345" y="185" r="2" fill="#0EA5E9"/>
  <circle cx="355" y="185" r="2" fill="#0EA5E9"/>
  <rect x="335" y="210" width="30" height="40" rx="15" fill="#0EA5E9" fill-opacity="0.1"/>
  
  <!-- Globe -->
  <circle cx="250" y="150" r="60" fill="#0EA5E9" fill-opacity="0.05" stroke="#0EA5E9" stroke-width="2" stroke-dasharray="4 4"/>
  <path d="M210 150C210 150 230 170 250 150C270 130 290 150 290 150" stroke="#0EA5E9" stroke-width="2"/>
  
  <!-- Connecting Lines -->
  <path d="M180 220L320 180" stroke="#0EA5E9" stroke-width="2" stroke-dasharray="4 4"/>
  <circle cx="180" y="220" r="4" fill="#0EA5E9"/>
  <circle cx="320" y="180" r="4" fill="#0EA5E9"/>
  
  <!-- Decorative Elements -->
  <circle cx="120" y="120" r="8" fill="#0EA5E9" fill-opacity="0.2"/>
  <circle cx="380" y="280" r="8" fill="#0EA5E9" fill-opacity="0.2"/>
  <path d="M400 120L420 140M420 120L400 140" stroke="#0EA5E9" stroke-opacity="0.2" stroke-width="2"/>
</svg> 