<?xml version="1.0" encoding="UTF-8"?>
<svg width="600" height="600" viewBox="0 0 600 600" fill="none" xmlns="http://www.w3.org/2000/svg">
  <!-- Base circle -->
  <circle cx="300" cy="300" r="290" fill="#f8f9fa" stroke="#e9ecef" stroke-width="2"/>
  
  <!-- World map paths -->
  <path d="M150 200 L450 200 L450 400 L150 400 Z" fill="#90EE90" opacity="0.3"/>
  <path d="M200 250 C250 200, 350 200, 400 250 S450 350, 400 400" fill="#90EE90" opacity="0.2"/>
  
  <!-- Australia -->
  <path d="M400 400 Q450 380, 460 420 T500 450" fill="#90EE90" opacity="0.3"/>
  
  <!-- Asia -->
  <path d="M300 150 Q400 180, 450 200 T500 250" fill="#90EE90" opacity="0.3"/>
  
  <!-- Grid lines -->
  <path d="M300 50 C300 200, 300 400, 300 550" stroke="#90EE90" stroke-width="1" opacity="0.2"/>
  <path d="M50 300 C200 300, 400 300, 550 300" stroke="#90EE90" stroke-width="1" opacity="0.2"/>
  
  <!-- Connection dots -->
  <circle cx="250" cy="200" r="2" fill="#90EE90"/>
  <circle cx="350" cy="300" r="2" fill="#90EE90"/>
  <circle cx="400" cy="250" r="2" fill="#90EE90"/>
  <circle cx="300" cy="350" r="2" fill="#90EE90"/>
  
  <!-- Connection lines -->
  <path d="M250 200 L350 300" stroke="#90EE90" stroke-width="1" opacity="0.2"/>
  <path d="M400 250 L300 350" stroke="#90EE90" stroke-width="1" opacity="0.2"/>
</svg> 